<?xml version="1.0" encoding="UTF-8" standalone="no"?>
<svg
   width="165.48645"
   height="46.869701"
   viewBox="0 0 165.48646 46.869701"
   fill="none"
   version="1.1"
   id="svg8"
   sodipodi:docname="logo.svg"
   inkscape:version="1.3.2 (091e20e, 2023-11-25, custom)"
   xmlns:inkscape="http://www.inkscape.org/namespaces/inkscape"
   xmlns:sodipodi="http://sodipodi.sourceforge.net/DTD/sodipodi-0.dtd"
   xmlns="http://www.w3.org/2000/svg"
   xmlns:svg="http://www.w3.org/2000/svg">
  <defs
     id="defs8">
    <rect
       x="-8.8001871"
       y="-15.275797"
       width="164.04877"
       height="61.601311"
       id="rect9" />
    <rect
       x="25.125505"
       y="24.890688"
       width="85.708504"
       height="20.076923"
       id="rect8" />
  </defs>
  <sodipodi:namedview
     id="namedview8"
     pagecolor="#ffffff"
     bordercolor="#000000"
     borderopacity="0.25"
     inkscape:showpageshadow="2"
     inkscape:pageopacity="0.0"
     inkscape:pagecheckerboard="0"
     inkscape:deskcolor="#d1d1d1"
     inkscape:zoom="3.0112996"
     inkscape:cx="12.785178"
     inkscape:cy="-12.785178"
     inkscape:window-width="1920"
     inkscape:window-height="1017"
     inkscape:window-x="-8"
     inkscape:window-y="-8"
     inkscape:window-maximized="1"
     inkscape:current-layer="svg8" />
  <g
     id="g24"
     transform="translate(-0.03066718,-0.00732445)">
    <path
       d="M 39.161484,39.46462 26.984378,34.406017 v -2.078129 l 12.177106,-5.058602 v 2.61589 l -8.522151,3.490891 8.522151,3.472663 z"
       id="text24"
       style="font-weight:bold;font-size:18.6667px;line-height:0.98;-inkscape-font-specification:'sans-serif Bold';white-space:pre;fill:#0c1327;fill-opacity:1;stroke-width:1.92378;stroke-opacity:0"
       transform="matrix(0.00251856,1.331247,-2.31562,0.00144792,91.3171,-35.962356)"
       aria-label="&lt;" />
    <path
       d="M 0.40351898,32.132591 12.086652,15.914532 l 4.812158,-0.003 11.744468,16.20341 -6.057407,0.0038 -8.10504,-11.340033 -8.0199048,11.350116 z"
       id="text23"
       style="font-weight:bold;font-size:18.6667px;line-height:0.98;-inkscape-font-specification:'sans-serif Bold';white-space:pre;fill:#ff8086;fill-opacity:1;stroke-width:3.37768;stroke-opacity:0"
       aria-label="&lt;" />
  </g>
  <text
     xml:space="preserve"
     id="text9"
     style="font-weight:bold;font-size:18.6667px;line-height:0.98;font-family:sans-serif;-inkscape-font-specification:'sans-serif Bold';white-space:pre;shape-inside:url(#rect9);display:inline;fill:#128489;stroke-width:1.92378;stroke-opacity:0"
     transform="translate(21.453199,2.5626326)" />
  <path
     d="m 54.490769,19.720146 q 0,4.589484 -2.793598,7.033883 -2.793599,2.444399 -8.23114,2.444399 -5.437541,0 -8.23114,-2.444399 -2.77697,-2.444399 -2.77697,-7.017254 V 3.9230094 h 6.418626 V 19.370946 q 0,2.577428 1.080856,3.841199 1.080857,1.263771 3.508628,1.263771 2.394513,0 3.491998,-1.213885 1.114114,-1.213886 1.114114,-3.891085 V 3.9230094 h 6.418626 z"
     id="text22"
     style="font-weight:bold;font-size:34.0553px;line-height:0.98;-inkscape-font-specification:'sans-serif Bold';fill:#ff8086;fill-opacity:1;stroke-width:3.50972;stroke-opacity:0"
     aria-label="U" />
  <path
     d="m 80.896928,11.738435 q 0,1.662856 -0.581999,3.259199 -0.582,1.579713 -1.662857,2.66057 -1.479942,1.463314 -3.309084,2.211599 -1.812514,0.748286 -4.52297,0.748286 h -3.974227 v 8.064854 H 60.460422 V 3.9230094 h 10.509253 q 2.361256,0 3.974227,0.4157141 1.629599,0.3990856 2.876742,1.2138853 1.496571,0.9810853 2.278113,2.5109133 0.798171,1.529828 0.798171,3.6749129 z m -6.60154,0.149657 q 0,-1.0476 -0.565371,-1.795885 -0.565372,-0.7649139 -1.313657,-1.0642279 -0.997714,-0.399086 -1.945542,-0.432343 -0.947828,-0.04989 -2.527542,-0.04989 h -1.097485 v 7.4163409 h 1.829142 q 1.629599,0 2.677199,-0.199543 1.064228,-0.199543 1.779256,-0.798171 0.615257,-0.532114 0.881314,-1.263771 0.282686,-0.748286 0.282686,-1.812514 z"
     id="text21"
     style="font-weight:bold;font-size:34.0553px;line-height:0.98;-inkscape-font-specification:'sans-serif Bold';fill:#ff8086;fill-opacity:1;stroke-width:3.50972;stroke-opacity:0"
     aria-label="P" />
  <path
     d="M 88.496183,28.682943 H 85.370012 V 2.8088955 h 3.126171 z"
     id="text20"
     style="font-size:34.0553px;line-height:0.98;-inkscape-font-specification:sans-serif;fill:#0c1327;fill-opacity:1;stroke-width:3.50972;stroke-opacity:0"
     aria-label="l" />
  <path
     d="M 110.22971,19.720146 H 96.544408 q 0,1.712742 0.515485,2.993142 0.515486,1.263771 1.413428,2.078571 0.864686,0.798171 2.045309,1.197256 1.19726,0.399086 2.62731,0.399086 1.89566,0 3.80795,-0.748285 1.92891,-0.764914 2.74371,-1.496571 h 0.16629 v 3.408856 q -1.57972,0.665142 -3.22595,1.114113 -1.64622,0.448972 -3.45874,0.448972 -4.622736,0 -7.216792,-2.494285 -2.594056,-2.510913 -2.594056,-7.117026 0,-4.556227 2.477656,-7.233426 2.494285,-2.6771989 6.551652,-2.6771989 3.75806,0 5.78674,2.1949709 2.04531,2.19497 2.04531,6.235712 z m -3.04302,-2.394513 q -0.0166,-2.461028 -1.24715,-3.807942 -1.21388,-1.346913 -3.70817,-1.346913 -2.510906,0 -4.007477,1.479942 -1.479943,1.479942 -1.679485,3.674913 z"
     id="text19"
     style="font-size:34.0553px;line-height:0.98;-inkscape-font-specification:sans-serif;fill:#0c1327;fill-opacity:1;stroke-width:3.50972;stroke-opacity:0"
     aria-label="e" />
  <path
     d="m 129.40245,28.682943 h -3.10954 v -1.978799 q -0.41572,0.282685 -1.13074,0.798171 -0.6984,0.498857 -1.36355,0.798171 -0.78154,0.382457 -1.79588,0.631885 -1.01434,0.266057 -2.37789,0.266057 -2.51091,0 -4.25691,-1.662856 -1.746,-1.662857 -1.746,-4.240284 0,-2.111828 0.89794,-3.408856 0.91458,-1.313657 2.59406,-2.061942 1.69611,-0.748286 4.074,-1.014343 2.37788,-0.266057 5.10497,-0.399085 v -0.482229 q 0,-1.064228 -0.38246,-1.762628 -0.36583,-0.698399 -1.06423,-1.097485 -0.66514,-0.382457 -1.59634,-0.515485 -0.9312,-0.133029 -1.94554,-0.133029 -1.23052,0 -2.74371,0.332571 -1.5132,0.315943 -3.12617,0.9312 h -0.16629 v -3.176056 q 0.91457,-0.249428 2.64394,-0.5487429 1.72937,-0.299314 3.40886,-0.299314 1.96217,0 3.40885,0.332572 1.46332,0.3159419 2.52754,1.0974849 1.0476,0.764914 1.59635,1.978799 0.54874,1.213885 0.54874,3.00977 z m -3.10954,-4.572855 v -5.171484 q -1.43006,0.08314 -3.3756,0.249428 -1.92891,0.166286 -3.05966,0.482229 -1.34691,0.382457 -2.17834,1.197256 -0.83143,0.798171 -0.83143,2.211599 0,1.596343 0.96446,2.411142 0.96446,0.798172 2.94326,0.798172 1.64622,0 3.00977,-0.631886 1.36354,-0.648514 2.52754,-1.546456 z"
     id="text18"
     style="font-size:34.0553px;line-height:0.98;-inkscape-font-specification:sans-serif;fill:#0c1327;fill-opacity:1;stroke-width:3.50972;stroke-opacity:0"
     aria-label="a" />
  <path
     d="m 147.0121,13.517691 h -0.16629 q -0.6984,-0.166285 -1.36354,-0.232799 -0.64851,-0.08314 -1.54646,-0.08314 -1.44668,0 -2.7936,0.648514 -1.34691,0.631885 -2.59405,1.646228 v 13.186452 h -3.12617 v -18.57411 h 3.12617 v 2.743713 q 1.8624,-1.496571 3.27583,-2.111828 1.43005,-0.631885 2.90999,-0.631885 0.8148,0 1.18063,0.04988 0.36583,0.03326 1.09749,0.149657 z"
     id="text17"
     style="font-size:34.0553px;line-height:0.98;-inkscape-font-specification:sans-serif;fill:#0c1327;fill-opacity:1;stroke-width:3.50972;stroke-opacity:0"
     aria-label="r" />
  <path
     d="m 165.48644,28.682943 h -3.12617 V 18.107175 q 0,-1.280399 -0.14966,-2.394513 -0.14966,-1.130742 -0.54874,-1.762628 -0.41572,-0.6984 -1.19726,-1.030971 -0.78154,-0.3492 -2.02868,-0.3492 -1.2804,0 -2.6772,0.631886 -1.3968,0.631885 -2.6772,1.612971 v 13.868223 h -3.12617 V 10.108836 h 3.12617 v 2.061942 q 1.46331,-1.213886 3.0264,-1.895657 1.56308,-0.6817709 3.20931,-0.6817709 3.00977,0 4.58949,1.8125139 1.57971,1.812513 1.57971,5.221369 z"
     id="text16"
     style="font-size:34.0553px;line-height:0.98;-inkscape-font-specification:sans-serif;fill:#0c1327;fill-opacity:1;stroke-width:3.50972;stroke-opacity:0"
     aria-label="n" />
  <path
     d="m 41.04221,40.754873 q 0,0.874439 -0.249839,1.573991 -0.243594,0.699551 -0.662076,1.174247 -0.443466,0.493434 -0.974375,0.743273 -0.53091,0.243594 -1.168002,0.243594 -0.593369,0 -1.036835,-0.143658 -0.443466,-0.137412 -0.874439,-0.374759 l -0.07495,0.324791 h -1.099296 v -9.718769 h 1.174248 v 3.472774 q 0.493433,-0.40599 1.049327,-0.662076 0.555894,-0.262332 1.249199,-0.262332 1.236707,0 1.948751,0.949391 0.718289,0.949392 0.718289,2.679533 z m -1.211723,0.03123 q 0,-1.249199 -0.412236,-1.892537 -0.412235,-0.649584 -1.330397,-0.649584 -0.512171,0 -1.036835,0.224856 -0.524664,0.21861 -0.974375,0.568386 v 3.997437 q 0.499679,0.224856 0.855701,0.3123 0.362268,0.08744 0.818226,0.08744 0.974375,0 1.524023,-0.637092 0.555893,-0.643337 0.555893,-2.01121 z"
     id="text40"
     style="font-size:12.7918px;line-height:0.98;-inkscape-font-specification:sans-serif;fill:#0c1327;stroke-width:1.31832;stroke-opacity:0"
     aria-label="b" />
  <path
     d="m 48.874688,37.319575 -4.072389,9.550128 h -1.255445 l 1.299167,-2.910634 -2.779468,-6.639494 h 1.274183 l 2.142376,5.171685 2.161115,-5.171685 z"
     id="text39"
     style="font-size:12.7918px;line-height:0.98;-inkscape-font-specification:sans-serif;fill:#0c1327;stroke-width:1.31832;stroke-opacity:0"
     aria-label="y" />
  <path
     d="m 60.067513,43.859133 q -0.587123,0.281069 -1.118033,0.437219 -0.524664,0.15615 -1.118033,0.15615 -0.755766,0 -1.386611,-0.21861 -0.630846,-0.224855 -1.080558,-0.674567 -0.455957,-0.449712 -0.705797,-1.136771 -0.24984,-0.68706 -0.24984,-1.605221 0,-1.711403 0.936899,-2.685779 0.943146,-0.974375 2.485907,-0.974375 0.599615,0 1.174247,0.168642 0.580878,0.168642 1.061819,0.412236 v 1.305413 h -0.06246 q -0.537155,-0.418482 -1.111787,-0.643338 -0.568386,-0.224856 -1.111787,-0.224856 -0.99936,0 -1.580237,0.674568 -0.574632,0.668322 -0.574632,1.967489 0,1.261691 0.56214,1.942504 0.568385,0.674568 1.592729,0.674568 0.356022,0 0.724535,-0.09369 0.368514,-0.09369 0.662076,-0.243594 0.256086,-0.131166 0.480942,-0.274824 0.224855,-0.149904 0.356021,-0.256085 h 0.06246 z"
     id="text38"
     style="font-size:12.7918px;line-height:0.98;-inkscape-font-specification:sans-serif;fill:#0c1327;stroke-width:1.31832;stroke-opacity:0"
     aria-label="c" />
  <path
     d="m 67.518987,40.811087 q 0,1.705157 -0.874439,2.692024 -0.87444,0.986867 -2.342249,0.986867 -1.480301,0 -2.35474,-0.986867 -0.868194,-0.986867 -0.868194,-2.692024 0,-1.705157 0.868194,-2.692025 0.874439,-0.993113 2.35474,-0.993113 1.467809,0 2.342249,0.993113 0.874439,0.986868 0.874439,2.692025 z m -1.211723,0 q 0,-1.355381 -0.53091,-2.011211 -0.530909,-0.662076 -1.474055,-0.662076 -0.955637,0 -1.486547,0.662076 -0.524664,0.65583 -0.524664,2.011211 0,1.311659 0.53091,1.992472 0.53091,0.674568 1.480301,0.674568 0.9369,0 1.467809,-0.668322 0.537156,-0.674567 0.537156,-1.998718 z"
     id="text37"
     style="font-size:12.7918px;line-height:0.98;-inkscape-font-specification:sans-serif;fill:#0c1327;stroke-width:1.31832;stroke-opacity:0"
     aria-label="o" />
  <path
     d="m 74.995442,44.296352 h -1.174247 v -0.730781 q -0.505926,0.43722 -1.055573,0.680813 -0.549648,0.243594 -1.192985,0.243594 -1.2492,0 -1.986227,-0.961883 -0.730782,-0.961883 -0.730782,-2.66704 0,-0.886932 0.24984,-1.580237 0.256086,-0.693306 0.68706,-1.180494 0.424727,-0.474695 0.986867,-0.724535 0.568386,-0.24984 1.174247,-0.24984 0.549648,0 0.974376,0.118674 0.424727,0.112428 0.893177,0.356022 v -3.023062 h 1.174247 z M 73.821195,42.578704 V 38.57502 q -0.474696,-0.212364 -0.849455,-0.293562 -0.37476,-0.0812 -0.818226,-0.0812 -0.986867,0 -1.536515,0.68706 -0.549647,0.68706 -0.549647,1.948751 0,1.242953 0.424727,1.892536 0.424728,0.643338 1.361627,0.643338 0.49968,0 1.011852,-0.21861 0.512171,-0.224856 0.955637,-0.574631 z"
     id="text36"
     style="font-size:12.7918px;line-height:0.98;-inkscape-font-specification:sans-serif;fill:#0c1327;stroke-width:1.31832;stroke-opacity:0"
     aria-label="d" />
  <path
     d="m 83.146471,40.929761 h -5.140455 q 0,0.643337 0.193626,1.124279 0.193626,0.474696 0.530909,0.780749 0.324792,0.299808 0.768258,0.449712 0.449712,0.149904 0.986867,0.149904 0.712044,0 1.430333,-0.28107 0.724536,-0.287316 1.03059,-0.562139 h 0.06246 v 1.280429 q -0.59337,0.24984 -1.211724,0.418481 -0.618353,0.168642 -1.299167,0.168642 -1.736387,0 -2.710762,-0.936899 -0.974375,-0.943145 -0.974375,-2.673286 0,-1.711403 0.930653,-2.717009 0.9369,-1.005605 2.460923,-1.005605 1.411595,0 2.173606,0.824472 0.768258,0.824471 0.768258,2.342248 z m -1.143018,-0.899424 q -0.0062,-0.924407 -0.468449,-1.430333 -0.455958,-0.505926 -1.392857,-0.505926 -0.943146,0 -1.505285,0.555894 -0.555894,0.555894 -0.630846,1.380365 z"
     id="text35"
     style="font-size:12.7918px;line-height:0.98;-inkscape-font-specification:sans-serif;fill:#0c1327;stroke-width:1.31832;stroke-opacity:0"
     aria-label="e" />
  <path
     d="m 94.58289,43.859133 q -0.587123,0.281069 -1.118033,0.437219 -0.524664,0.15615 -1.118033,0.15615 -0.755766,0 -1.386611,-0.21861 -0.630846,-0.224855 -1.080558,-0.674567 -0.455957,-0.449712 -0.705797,-1.136771 -0.24984,-0.68706 -0.24984,-1.605221 0,-1.711403 0.936899,-2.685779 0.943146,-0.974375 2.485907,-0.974375 0.599615,0 1.174247,0.168642 0.580878,0.168642 1.061819,0.412236 v 1.305413 h -0.06246 q -0.537155,-0.418482 -1.111787,-0.643338 -0.568386,-0.224856 -1.111787,-0.224856 -0.99936,0 -1.580237,0.674568 -0.574632,0.668322 -0.574632,1.967489 0,1.261691 0.56214,1.942504 0.568385,0.674568 1.592729,0.674568 0.356022,0 0.724535,-0.09369 0.368514,-0.09369 0.662076,-0.243594 0.256086,-0.131166 0.480942,-0.274824 0.224855,-0.149904 0.356021,-0.256085 h 0.06246 z"
     id="text34"
     style="font-size:12.7918px;line-height:0.98;-inkscape-font-specification:sans-serif;fill:#0c1327;stroke-width:1.31832;stroke-opacity:0"
     aria-label="c" />
  <path
     d="m 102.03436,40.811087 q 0,1.705157 -0.87444,2.692024 -0.87444,0.986867 -2.342248,0.986867 -1.480301,0 -2.35474,-0.986867 -0.868193,-0.986867 -0.868193,-2.692024 0,-1.705157 0.868193,-2.692025 0.874439,-0.993113 2.35474,-0.993113 1.467808,0 2.342248,0.993113 0.87444,0.986868 0.87444,2.692025 z m -1.21172,0 q 0,-1.355381 -0.53091,-2.011211 -0.530912,-0.662076 -1.474058,-0.662076 -0.955637,0 -1.486547,0.662076 -0.524663,0.65583 -0.524663,2.011211 0,1.311659 0.530909,1.992472 0.53091,0.674568 1.480301,0.674568 0.9369,0 1.467808,-0.668322 0.53716,-0.674567 0.53716,-1.998718 z"
     id="text33"
     style="font-size:12.7918px;line-height:0.98;-inkscape-font-specification:sans-serif;fill:#0c1327;stroke-width:1.31832;stroke-opacity:0"
     aria-label="o" />
  <path
     d="m 114.03291,44.296352 h -1.17425 v -3.972453 q 0,-0.449712 -0.0437,-0.868193 -0.0375,-0.418482 -0.16864,-0.668322 -0.14366,-0.268578 -0.41224,-0.40599 -0.26858,-0.137412 -0.7745,-0.137412 -0.49344,0 -0.98687,0.24984 -0.49343,0.243594 -0.98687,0.6246 0.0187,0.143658 0.0312,0.337284 0.0125,0.187379 0.0125,0.374759 v 4.465887 h -1.17425 v -3.972453 q 0,-0.462204 -0.0437,-0.874439 -0.0375,-0.418482 -0.16865,-0.668322 -0.14365,-0.268578 -0.41223,-0.399744 -0.26858,-0.137412 -0.7745,-0.137412 -0.48095,0 -0.96813,0.237348 -0.48095,0.237348 -0.96189,0.605862 v 5.20916 h -1.17424 v -6.976777 h 1.17424 v 0.774503 q 0.54965,-0.455957 1.09305,-0.712043 0.54965,-0.256086 1.168,-0.256086 0.71205,0 1.20548,0.299808 0.49968,0.299808 0.74327,0.830717 0.71205,-0.599615 1.29917,-0.861947 0.58712,-0.268578 1.25545,-0.268578 1.14926,0 1.69266,0.699552 0.54965,0.693305 0.54965,1.942504 z"
     id="text32"
     style="font-size:12.7918px;line-height:0.98;-inkscape-font-specification:sans-serif;fill:#0c1327;stroke-width:1.31832;stroke-opacity:0"
     aria-label="m" />
  <path
     d="m 126.47494,44.296352 h -1.17425 v -3.972453 q 0,-0.449712 -0.0437,-0.868193 -0.0375,-0.418482 -0.16864,-0.668322 -0.14366,-0.268578 -0.41224,-0.40599 -0.26857,-0.137412 -0.7745,-0.137412 -0.49343,0 -0.98687,0.24984 -0.49343,0.243594 -0.98686,0.6246 0.0187,0.143658 0.0312,0.337284 0.0125,0.187379 0.0125,0.374759 v 4.465887 h -1.17425 v -3.972453 q 0,-0.462204 -0.0437,-0.874439 -0.0375,-0.418482 -0.16864,-0.668322 -0.14366,-0.268578 -0.41224,-0.399744 -0.26858,-0.137412 -0.7745,-0.137412 -0.48094,0 -0.96813,0.237348 -0.48094,0.237348 -0.96189,0.605862 v 5.20916 h -1.17424 v -6.976777 h 1.17424 v 0.774503 q 0.54965,-0.455957 1.09305,-0.712043 0.54965,-0.256086 1.16801,-0.256086 0.71204,0 1.20547,0.299808 0.49968,0.299808 0.74328,0.830717 0.71204,-0.599615 1.29916,-0.861947 0.58713,-0.268578 1.25545,-0.268578 1.14926,0 1.69266,0.699552 0.54965,0.693305 0.54965,1.942504 z"
     id="text31"
     style="font-size:12.7918px;line-height:0.98;-inkscape-font-specification:sans-serif;fill:#0c1327;stroke-width:1.31832;stroke-opacity:0"
     aria-label="m" />
  <path
     d="m 134.15752,44.296352 h -1.16801 v -0.743273 q -0.15614,0.106182 -0.42472,0.299808 -0.26233,0.18738 -0.51217,0.299807 -0.29357,0.143658 -0.67457,0.237348 -0.38101,0.09994 -0.89318,0.09994 -0.94314,0 -1.59897,-0.624599 -0.65583,-0.6246 -0.65583,-1.592729 0,-0.793242 0.33728,-1.280429 0.34353,-0.493434 0.97438,-0.774504 0.63709,-0.28107 1.53026,-0.381006 0.89318,-0.09994 1.91752,-0.149904 v -0.181133 q 0,-0.399744 -0.14365,-0.662076 -0.13741,-0.262332 -0.39975,-0.412236 -0.24984,-0.143658 -0.59961,-0.193626 -0.34978,-0.04997 -0.73078,-0.04997 -0.46221,0 -1.03059,0.12492 -0.56839,0.118674 -1.17425,0.349776 h -0.0625 v -1.192985 q 0.34353,-0.09369 0.99311,-0.206118 0.64959,-0.112428 1.28043,-0.112428 0.73703,0 1.28043,0.12492 0.54965,0.118674 0.94939,0.412236 0.3935,0.287316 0.59962,0.743273 0.20612,0.455958 0.20612,1.130526 z m -1.16801,-1.717648 v -1.942505 q -0.53715,0.03123 -1.26793,0.09369 -0.72454,0.06246 -1.14927,0.181134 -0.50592,0.143658 -0.81822,0.449711 -0.3123,0.299808 -0.3123,0.830718 0,0.599615 0.36227,0.905669 0.36226,0.299808 1.10554,0.299808 0.61835,0 1.13052,-0.237348 0.51218,-0.243594 0.94939,-0.580877 z"
     id="text30"
     style="font-size:12.7918px;line-height:0.98;-inkscape-font-specification:sans-serif;fill:#0c1327;stroke-width:1.31832;stroke-opacity:0"
     aria-label="a" />
  <path
     d="m 142.25233,44.296352 h -1.17425 v -3.972453 q 0,-0.480942 -0.0562,-0.899423 -0.0562,-0.424728 -0.20612,-0.662076 -0.15615,-0.262332 -0.44971,-0.387252 -0.29356,-0.131166 -0.76201,-0.131166 -0.48094,0 -1.00561,0.237348 -0.52466,0.237348 -1.0056,0.605862 v 5.20916 h -1.17425 v -6.976777 h 1.17425 v 0.774503 q 0.54965,-0.455957 1.13677,-0.712043 0.58712,-0.256086 1.20548,-0.256086 1.13052,0 1.72389,0.680814 0.59337,0.680813 0.59337,1.961242 z"
     id="text29"
     style="font-size:12.7918px;line-height:0.98;-inkscape-font-specification:sans-serif;fill:#0c1327;stroke-width:1.31832;stroke-opacity:0"
     aria-label="n" />
  <path
     d="M 150.17225,44.296352 H 148.998 v -0.730781 q -0.50593,0.43722 -1.05557,0.680813 -0.54965,0.243594 -1.19299,0.243594 -1.2492,0 -1.98623,-0.961883 -0.73078,-0.961883 -0.73078,-2.66704 0,-0.886932 0.24984,-1.580237 0.25609,-0.693306 0.68706,-1.180494 0.42473,-0.474695 0.98687,-0.724535 0.56838,-0.24984 1.17425,-0.24984 0.54964,0 0.97437,0.118674 0.42473,0.112428 0.89318,0.356022 v -3.023062 h 1.17425 z M 148.998,42.578704 V 38.57502 q -0.4747,-0.212364 -0.84946,-0.293562 -0.37476,-0.0812 -0.81822,-0.0812 -0.98687,0 -1.53652,0.68706 -0.54964,0.68706 -0.54964,1.948751 0,1.242953 0.42472,1.892536 0.42473,0.643338 1.36163,0.643338 0.49968,0 1.01185,-0.21861 0.51217,-0.224856 0.95564,-0.574631 z"
     id="text28"
     style="font-size:12.7918px;line-height:0.98;-inkscape-font-specification:sans-serif;fill:#0c1327;stroke-width:1.31832;stroke-opacity:0"
     aria-label="d" />
  <path
     d="m 158.42946,40.811087 q 0,1.705157 -0.87444,2.692024 -0.87444,0.986867 -2.34225,0.986867 -1.4803,0 -2.35474,-0.986867 -0.8682,-0.986867 -0.8682,-2.692024 0,-1.705157 0.8682,-2.692025 0.87444,-0.993113 2.35474,-0.993113 1.46781,0 2.34225,0.993113 0.87444,0.986868 0.87444,2.692025 z m -1.21173,0 q 0,-1.355381 -0.53091,-2.011211 -0.53091,-0.662076 -1.47405,-0.662076 -0.95564,0 -1.48655,0.662076 -0.52466,0.65583 -0.52466,2.011211 0,1.311659 0.53091,1.992472 0.53091,0.674568 1.4803,0.674568 0.9369,0 1.46781,-0.668322 0.53715,-0.674567 0.53715,-1.998718 z"
     id="text27"
     style="font-size:12.7918px;line-height:0.98;-inkscape-font-specification:sans-serif;fill:#0c1327;stroke-width:1.31832;stroke-opacity:0"
     aria-label="o" />
  <path
     d="m 165.23135,42.285142 q 0,0.955637 -0.79324,1.567745 -0.787,0.612107 -2.15487,0.612107 -0.7745,0 -1.42409,-0.181134 -0.64333,-0.187379 -1.08055,-0.405989 v -1.317905 h 0.0625 q 0.55589,0.418481 1.2367,0.668321 0.68082,0.243594 1.30542,0.243594 0.7745,0 1.21172,-0.24984 0.43722,-0.24984 0.43722,-0.786995 0,-0.412236 -0.23735,-0.6246 -0.23735,-0.212364 -0.91191,-0.362268 -0.24984,-0.05621 -0.65583,-0.131166 -0.39975,-0.07495 -0.73078,-0.162396 -0.91817,-0.243593 -1.30542,-0.712043 -0.381,-0.474696 -0.381,-1.161755 0,-0.430974 0.17488,-0.81198 0.18114,-0.381006 0.54341,-0.680813 0.34977,-0.293562 0.88693,-0.462204 0.5434,-0.174888 1.21172,-0.174888 0.6246,0 1.26169,0.15615 0.64334,0.149904 1.06807,0.368514 v 1.255445 h -0.0625 q -0.44971,-0.331038 -1.09305,-0.555894 -0.64334,-0.231102 -1.26169,-0.231102 -0.64334,0 -1.08681,0.24984 -0.44346,0.243594 -0.44346,0.730782 0,0.430974 0.26858,0.649583 0.26233,0.21861 0.84945,0.356022 0.32479,0.07495 0.72454,0.149904 0.40599,0.07495 0.67456,0.137412 0.81823,0.18738 1.2617,0.643338 0.44346,0.462203 0.44346,1.224215 z"
     id="text26"
     style="font-size:12.7918px;line-height:0.98;-inkscape-font-specification:sans-serif;fill:#0c1327;stroke-width:1.31832;stroke-opacity:0"
     aria-label="s" />
</svg>
